<svg xmlns="http://www.w3.org/2000/svg" width="64" height="64" viewBox="0 0 64 64">
  <!-- Primed: Hourglass flipped/ready -->
  <rect x="16" y="6" width="32" height="4" rx="1" fill="#FFD700"/>
  <rect x="16" y="54" width="32" height="4" rx="1" fill="#FFD700"/>
  <!-- Top glass -->
  <path d="M 18 10 L 18 22 Q 18 32 32 32 Q 46 32 46 22 L 46 10 Z"
        fill="#FFF9C4" opacity="0.3" stroke="#FFD700" stroke-width="1.5"/>
  <!-- Bottom glass with sand -->
  <path d="M 18 54 L 18 42 Q 18 32 32 32 Q 46 32 46 42 L 46 54 Z"
        fill="none" stroke="#FFD700" stroke-width="1.5"/>
  <path d="M 20 54 L 20 46 Q 20 38 32 38 Q 44 38 44 46 L 44 54 Z"
        fill="#FFD700" opacity="0.5"/>
  <!-- Sand stream -->
  <line x1="32" y1="32" x2="32" y2="38" stroke="#FFD700" stroke-width="2" opacity="0.6"/>
  <!-- Ready sparkle -->
  <circle cx="50" cy="14" r="3" fill="#FFFFFF" opacity="0.7"/>
  <line x1="50" y1="9" x2="50" y2="19" stroke="#FFFFFF" stroke-width="1" opacity="0.5"/>
  <line x1="45" y1="14" x2="55" y2="14" stroke="#FFFFFF" stroke-width="1" opacity="0.5"/>
</svg>