<svg xmlns="http://www.w3.org/2000/svg" width="128" height="128" viewBox="0 0 128 128">
  <!-- Herbalist: Potion bottle - magical brewer -->
  <circle cx="64" cy="64" r="60" fill="#1B5E20" stroke="#66BB6A" stroke-width="4"/>
  <!-- Bottle neck -->
  <rect x="55" y="18" width="18" height="18" rx="2" fill="#A0A0A0"/>
  <!-- Cork -->
  <rect x="57" y="12" width="14" height="10" rx="3" fill="#8D6E63"/>
  <!-- Bottle body -->
  <path d="M 55 36 L 48 50 Q 35 55 35 72 L 35 95 Q 35 110 50 110 L 78 110 Q 93 110 93 95 L 93 72 Q 93 55 80 50 L 73 36 Z"
        fill="#A0A0A0" stroke="#808080" stroke-width="2"/>
  <!-- Liquid -->
  <path d="M 38 68 Q 38 58 50 55 L 55 50 L 73 50 L 78 55 Q 90 58 90 68 L 90 95 Q 90 107 78 107 L 50 107 Q 38 107 38 95 Z"
        fill="#4CAF50" opacity="0.8"/>
  <!-- Bubbles -->
  <circle cx="55" cy="82" r="5" fill="#81C784" opacity="0.6"/>
  <circle cx="72" cy="75" r="4" fill="#A5D6A7" opacity="0.5"/>
  <circle cx="62" cy="92" r="3" fill="#81C784" opacity="0.7"/>
  <!-- Glass shine -->
  <line x1="42" y1="60" x2="42" y2="100" stroke="#FFFFFF" stroke-width="2" opacity="0.3"/>
</svg>